<mxfile host="app.diagrams.net" modified="2024-06-15T00:16:14.782Z" agent="Mozilla/5.0 (Windows NT 10.0; Win64; x64) AppleWebKit/537.36 (KHTML, like Gecko) Chrome/125.0.0.0 Safari/537.36" etag="fh4E0TR1M21Pq3b5-NKM" version="24.5.4" type="google">
  <diagram name="PÃ¡gina-1" id="4wBrNCySzr2bgF_wl7q8">
    <mxGraphModel grid="1" page="1" gridSize="10" guides="1" tooltips="1" connect="1" arrows="1" fold="1" pageScale="1" pageWidth="827" pageHeight="1169" math="0" shadow="0">
      <root>
        <mxCell id="0" />
        <mxCell id="1" parent="0" />
        <mxCell id="j5vwMzaZ2fJYvWXA0MNr-29" value="Cantina Senai&amp;nbsp;" style="shape=umlFrame;whiteSpace=wrap;html=1;pointerEvents=0;width=120;height=40;" vertex="1" parent="1">
          <mxGeometry x="180" y="40" width="490" height="520" as="geometry" />
        </mxCell>
        <mxCell id="j5vwMzaZ2fJYvWXA0MNr-30" value="Fazer Login" style="ellipse;whiteSpace=wrap;html=1;" vertex="1" parent="1">
          <mxGeometry x="330" y="50" width="140" height="70" as="geometry" />
        </mxCell>
        <mxCell id="j5vwMzaZ2fJYvWXA0MNr-31" value="Fazer Pedidos" style="ellipse;whiteSpace=wrap;html=1;" vertex="1" parent="1">
          <mxGeometry x="330" y="170" width="140" height="70" as="geometry" />
        </mxCell>
        <mxCell id="j5vwMzaZ2fJYvWXA0MNr-32" value="Cadastrar Produtos" style="ellipse;whiteSpace=wrap;html=1;" vertex="1" parent="1">
          <mxGeometry x="330" y="330" width="140" height="70" as="geometry" />
        </mxCell>
        <mxCell id="j5vwMzaZ2fJYvWXA0MNr-33" value="Receber pedidos" style="ellipse;whiteSpace=wrap;html=1;" vertex="1" parent="1">
          <mxGeometry x="330" y="430" width="140" height="70" as="geometry" />
        </mxCell>
        <mxCell id="j5vwMzaZ2fJYvWXA0MNr-36" style="edgeStyle=orthogonalEdgeStyle;rounded=0;orthogonalLoop=1;jettySize=auto;html=1;exitX=1;exitY=0.3333333333333333;exitDx=0;exitDy=0;exitPerimeter=0;entryX=0;entryY=0.5;entryDx=0;entryDy=0;endArrow=none;endFill=0;" edge="1" parent="1" source="j5vwMzaZ2fJYvWXA0MNr-35" target="j5vwMzaZ2fJYvWXA0MNr-31">
          <mxGeometry relative="1" as="geometry" />
        </mxCell>
        <mxCell id="j5vwMzaZ2fJYvWXA0MNr-35" value="Prof &amp;amp; alunos&lt;div&gt;&lt;br&gt;&lt;/div&gt;" style="shape=umlActor;verticalLabelPosition=bottom;verticalAlign=top;html=1;" vertex="1" parent="1">
          <mxGeometry x="60" y="110" width="30" height="60" as="geometry" />
        </mxCell>
        <mxCell id="j5vwMzaZ2fJYvWXA0MNr-37" value="" style="endArrow=open;endSize=12;dashed=1;html=1;rounded=0;entryX=0.5;entryY=1;entryDx=0;entryDy=0;exitX=0.5;exitY=0;exitDx=0;exitDy=0;" edge="1" parent="1" source="j5vwMzaZ2fJYvWXA0MNr-31" target="j5vwMzaZ2fJYvWXA0MNr-30">
          <mxGeometry width="160" relative="1" as="geometry">
            <mxPoint x="270" y="280" as="sourcePoint" />
            <mxPoint x="430" y="280" as="targetPoint" />
          </mxGeometry>
        </mxCell>
        <mxCell id="j5vwMzaZ2fJYvWXA0MNr-39" style="edgeStyle=orthogonalEdgeStyle;rounded=0;orthogonalLoop=1;jettySize=auto;html=1;exitX=0;exitY=0.3333333333333333;exitDx=0;exitDy=0;exitPerimeter=0;entryX=1;entryY=0.5;entryDx=0;entryDy=0;endArrow=none;endFill=0;" edge="1" parent="1" source="j5vwMzaZ2fJYvWXA0MNr-38" target="j5vwMzaZ2fJYvWXA0MNr-32">
          <mxGeometry relative="1" as="geometry" />
        </mxCell>
        <mxCell id="j5vwMzaZ2fJYvWXA0MNr-40" style="edgeStyle=orthogonalEdgeStyle;rounded=0;orthogonalLoop=1;jettySize=auto;html=1;entryX=1;entryY=0.5;entryDx=0;entryDy=0;endArrow=none;endFill=0;" edge="1" parent="1" source="j5vwMzaZ2fJYvWXA0MNr-38" target="j5vwMzaZ2fJYvWXA0MNr-33">
          <mxGeometry relative="1" as="geometry">
            <Array as="points">
              <mxPoint x="590" y="340" />
              <mxPoint x="590" y="465" />
            </Array>
          </mxGeometry>
        </mxCell>
        <mxCell id="j5vwMzaZ2fJYvWXA0MNr-38" value="&lt;div&gt;ADM&lt;/div&gt;" style="shape=umlActor;verticalLabelPosition=bottom;verticalAlign=top;html=1;" vertex="1" parent="1">
          <mxGeometry x="710" y="320" width="30" height="60" as="geometry" />
        </mxCell>
        <mxCell id="j5vwMzaZ2fJYvWXA0MNr-41" value="Fazer Cadastro" style="ellipse;whiteSpace=wrap;html=1;" vertex="1" parent="1">
          <mxGeometry x="500" y="170" width="140" height="70" as="geometry" />
        </mxCell>
        <mxCell id="j5vwMzaZ2fJYvWXA0MNr-42" value="" style="endArrow=open;endSize=12;dashed=1;html=1;rounded=0;entryX=1;entryY=1;entryDx=0;entryDy=0;exitX=0;exitY=0;exitDx=0;exitDy=0;" edge="1" parent="1" source="j5vwMzaZ2fJYvWXA0MNr-41" target="j5vwMzaZ2fJYvWXA0MNr-30">
          <mxGeometry width="160" relative="1" as="geometry">
            <mxPoint x="550" y="145" as="sourcePoint" />
            <mxPoint x="440" y="120" as="targetPoint" />
          </mxGeometry>
        </mxCell>
      </root>
    </mxGraphModel>
  </diagram>
</mxfile>
